<?xml version="1.0" encoding="UTF-8"?>
<svg width="38px" height="48px" viewBox="0 0 38 48" version="1.1" xmlns="http://www.w3.org/2000/svg" xmlns:xlink="http://www.w3.org/1999/xlink">
    <!-- Generator: Sketch 49.2 (51160) - http://www.bohemiancoding.com/sketch -->
    <title>Slice 1</title>
    <desc>Created with Sketch.</desc>
    <defs></defs>
    <g id="Page-1" stroke="none" stroke-width="1" fill="none" fill-rule="evenodd">
        <g id="icon-cart" fill="#000000" fill-rule="nonzero">
            <path d="M37.5,12.9 C37.1,12.5 36.6,12.3 36,12.3 L29,12.3 L29,10.6 C29,4.6 24.6,0 19,0 C13.4,0 9,4.6 9,10.5 L9,12.3 L2,12.3 C1.4,12.3 0.9,12.6 0.5,13 C0.1,13.4 0,13.9 0,14.5 L2.5,40.7 C2.6,44.2 5.6,48 9.7,48 L28.4,48 C32.2,48 35.3,45.1 35.5,41.3 L38,14.4 C38,13.9 37.9,13.3 37.5,12.9 Z M13,10.5 C13,6.8 15.6,3.9 19,3.9 C22.4,3.9 25,6.8 25,10.5 L25,12.3 L13,12.3 L13,10.5 Z" id="Shape"></path>
        </g>
    </g>
</svg>